<?xml version="1.0" encoding="utf-8"?>
<!-- Generator: Adobe Illustrator 22.0.1, SVG Export Plug-In . SVG Version: 6.00 Build 0)  -->
<svg version="1.1" id="Calque_1" xmlns="http://www.w3.org/2000/svg" xmlns:xlink="http://www.w3.org/1999/xlink" x="0px" y="0px"
	 viewBox="0 0 1024 1024" style="enable-background:new 0 0 1024 1024;" xml:space="preserve">
<style type="text/css">
	.st0{fill:#A1C849;}
</style>
<g>
	<g>
		<g>
			<g>
				<path id="a3qYzbn4KI" class="st0" d="M546.4,12.1l1.2,0.1l1.2,0.1l1.2,0.1l1.1,0.2l1.1,0.2l1.1,0.2l1.1,0.3l1.1,0.3l1.1,0.3
					l1.1,0.4l1.1,0.4l1.1,0.4l1,0.5l1,0.5l1,0.5l1,0.5l1,0.6l1,0.6l1,0.6l0.9,0.6l0.9,0.7l0.9,0.7l0.9,0.7l0.9,0.8l0.8,0.8L573,24
					l0.8,0.8l0.8,0.9l0.7,0.9l0.7,0.9l0.7,0.9l0.7,0.9l0.6,1l0.6,1l0.6,1l0.6,1l0.5,1l0.5,1.1l7.8,16.7l8,16.9l8.3,17.1l8.5,17.2
					l8.7,17.4l8.8,17.6l9,17.7l9.1,17.8l9.2,17.9l9.3,18l9.4,18l9.4,18.1l9.4,18.1l9.4,18.1l9.3,18.1l9.2,18.1l9.2,18l9,17.9
					l8.9,17.8l8.7,17.7l8.5,17.6l8.3,17.5l8.1,17.3l7.8,17.1l7.5,16.9l7.2,16.7l6.9,16.5l6.5,16.2l6.2,16l5.7,15.7l5.3,15.4l4.9,15
					l4.4,14.7l3.9,14.3l3.3,14l2.8,13.6l2.2,13.2l1.6,12.7l1,12.3l0.3,11.8l-0.3,13.1l-0.8,13l-1.3,12.8l-1.8,12.7l-2.3,12.5
					l-2.8,12.3l-3.2,12.1l-3.7,11.9l-4.2,11.7l-4.6,11.5l-5,11.3l-5.5,11l-5.9,10.8l-6.3,10.6l-6.7,10.3l-7,10l-7.4,9.7l-7.8,9.4
					l-8.1,9.1l-8.5,8.8l-8.8,8.5l-9.1,8.1l-9.4,7.8l-9.7,7.4l-10,7l-10.3,6.7l-10.5,6.3l-10.8,5.9l-11,5.5l-11.3,5l-11.5,4.6
					l-11.7,4.2l-11.9,3.7l-12.1,3.2l-12.3,2.8l-12.5,2.3l-12.7,1.8l-12.8,1.3l-13,0.8L544,1012l-13.1-0.3l-13-0.8l-12.8-1.3
					l-12.7-1.8l-12.5-2.3l-12.3-2.8l-12.1-3.2l-11.9-3.7l-11.7-4.2l-11.5-4.6l-11.3-5l-11-5.5l-10.8-5.9l-10.6-6.3l-10.3-6.7l-10-7
					l-9.7-7.4l-9.4-7.8l-9.1-8.1l-8.8-8.5l-8.5-8.8l-8.1-9.1l-7.8-9.4l-7.4-9.7l-7-10l-6.7-10.3l-6.3-10.6l-5.9-10.8l-5.5-11
					l-5-11.3l-4.6-11.5l-4.2-11.7l-3.7-11.9l-3.2-12.1l-2.8-12.3l-2.3-12.5l-1.8-12.7l-1.3-12.8l-0.8-13l-0.3-13.1l0.3-11.8l1-12.3
					l1.6-12.7l2.2-13.2l2.8-13.6l3.4-14l3.9-14.3l4.4-14.7l4.9-15l5.3-15.4l5.8-15.7l6.1-16l6.5-16.2l6.9-16.5l7.2-16.7l7.5-16.9
					l7.8-17.1l8.1-17.3l8.3-17.5l8.5-17.6l8.7-17.7l8.9-17.8l9-17.9l9.2-18l9.3-18.1l9.3-18.1l9.4-18.1l9.4-18.1l9.4-18.1l9.4-18
					l9.3-18l9.2-17.9l9.1-17.8l9-17.7l8.9-17.6l8.7-17.4l8.5-17.3l8.3-17.1l8-16.9l7.8-16.7l0.5-1.1l0.5-1l0.6-1l0.6-1l0.6-1l0.6-1
					l0.7-0.9l0.7-0.9l0.7-0.9l0.7-0.9l0.8-0.9l0.8-0.8l0.8-0.8l0.8-0.8l0.9-0.8l0.9-0.7l0.9-0.7l0.9-0.7l0.9-0.6l1-0.6l1-0.6l1-0.6
					l1-0.5l1-0.5l1-0.5l1-0.5l1.1-0.4l1.1-0.4l1.1-0.4l1.1-0.3l1.1-0.3L535,13l1.1-0.2l1.1-0.2l1.1-0.2l1.2-0.1l1.2-0.1l1.2-0.1h1.2
					h1.2h1.2L546.4,12.1z M542.1,144.1l-0.9,0.1l-0.9,0.1l-0.9,0.1l-0.9,0.1l-0.9,0.2l-0.9,0.2l-0.9,0.2l-0.9,0.2l-0.9,0.3l-0.9,0.3
					l-0.9,0.3l-0.8,0.3l-0.8,0.4l-0.8,0.4l-0.8,0.4l-0.8,0.4l-0.8,0.4l-0.8,0.5l-0.8,0.5L525,150l-0.7,0.5l-0.7,0.6l-0.7,0.6
					l-0.7,0.6l-0.7,0.6l-0.7,0.6l-0.6,0.7l-0.6,0.7l-0.6,0.7l-0.6,0.7l-0.5,0.7l-0.5,0.8l-0.5,0.8l-0.5,0.8l-0.5,0.8l-0.5,0.8
					l-0.4,0.8l-0.4,0.8l-6.2,13.3l-6.4,13.5l-6.6,13.7l-6.8,13.8l-6.9,13.9l-7.1,14.1l-7.2,14.2l-7.3,14.2l-7.4,14.3l-7.4,14.4
					l-7.5,14.4l-7.5,14.5l-7.5,14.5l-7.5,14.5l-7.5,14.5l-7.4,14.4l-7.3,14.4l-7.2,14.3l-7.1,14.3l-7,14.2l-6.8,14.1l-6.7,14
					l-6.5,13.9l-6.3,13.7l-6,13.5l-5.8,13.4l-5.5,13.2l-5.2,13l-4.9,12.8l-4.6,12.5l-4.3,12.3l-3.9,12l-3.5,11.8l-3.1,11.5
					l-2.7,11.2l-2.2,10.9l-1.8,10.5l-1.3,10.2l-0.8,9.8l-0.3,9.5l0.2,10.5l0.6,10.4l1,10.3l1.5,10.1l1.8,10l2.2,9.9l2.6,9.7l3,9.5
					l3.3,9.4l3.7,9.2l4,9l4.4,8.9l4.7,8.6l5,8.4l5.3,8.2l5.6,8l5.9,7.8l6.2,7.5l6.5,7.3l6.8,7l7,6.8l7.3,6.5l7.5,6.2l7.8,5.9l8,5.6
					l8.2,5.3l8.4,5l8.6,4.7l8.8,4.4l9,4l9.2,3.7l9.4,3.3l9.5,3l9.7,2.6l9.9,2.2l10,1.8l10.1,1.5l10.2,1l10.4,0.6L544,944l10.5-0.2
					l10.4-0.6l10.3-1l10.1-1.5l10-1.8l9.9-2.2l9.7-2.6l9.6-3l9.4-3.3l9.2-3.7l9-4l8.8-4.4l8.7-4.7l8.4-5l8.2-5.3l8-5.6l7.8-5.9
					l7.5-6.2l7.3-6.5l7-6.8l6.8-7l6.5-7.3l6.2-7.5l5.9-7.8l5.6-8l5.3-8.2l5-8.4l4.7-8.6l4.4-8.8l4-9l3.7-9.2l3.3-9.4l3-9.5l2.6-9.7
					l2.2-9.9l1.8-10l1.5-10.1l1-10.3l0.6-10.4l0.2-10.5l-0.3-9.5l-0.8-9.8l-1.3-10.2l-1.8-10.5l-2.2-10.9L789,628l-3.1-11.5
					l-3.5-11.8l-3.9-12l-4.2-12.3l-4.6-12.5l-4.9-12.8l-5.2-13l-5.5-13.2l-5.8-13.4l-6-13.5l-6.3-13.7l-6.5-13.9l-6.7-14l-6.8-14.1
					l-7-14.2l-7.1-14.3l-7.2-14.3l-7.3-14.4l-7.4-14.4l-7.5-14.5l-7.5-14.5l-7.5-14.5l-7.5-14.5l-7.5-14.4l-7.4-14.4l-7.4-14.3
					l-7.3-14.2l-7.2-14.2l-7.1-14.1l-7-13.9l-6.8-13.8l-6.6-13.7l-6.4-13.5l-6.2-13.3l-0.4-0.9l-0.4-0.8l-0.5-0.8l-0.5-0.8l-0.5-0.8
					l-0.5-0.8l-0.5-0.8l-0.6-0.7l-0.6-0.7l-0.6-0.7l-0.6-0.7l-0.6-0.7l-0.6-0.6l-0.7-0.6l-0.7-0.6l-0.7-0.6l-0.7-0.6l-0.7-0.5
					l-0.7-0.5l-0.8-0.5l-0.8-0.5l-0.8-0.5l-0.8-0.4l-0.8-0.4l-0.8-0.4l-0.8-0.4l-0.8-0.3l-0.9-0.3l-0.9-0.3l-0.9-0.3l-0.9-0.2
					l-0.9-0.2l-0.9-0.2l-0.9-0.2l-0.9-0.2l-0.9-0.1l-0.9-0.1l-0.9-0.1h-0.9h-0.9h-1L542.1,144.1z"/>
			</g>
		</g>
	</g>
</g>
</svg>
